<svg width="32" height="17" viewBox="0 0 32 17" fill="none" xmlns="http://www.w3.org/2000/svg">
<path opacity="0.3" fill-rule="evenodd" clip-rule="evenodd" d="M8.08689 0.916142C8.21994 0.971349 8.34078 1.05226 8.4425 1.15424C8.54449 1.25597 8.6254 1.37681 8.6806 1.50985C8.73581 1.64289 8.76423 1.78552 8.76423 1.92956C8.76423 2.0736 8.73581 2.21623 8.6806 2.34927C8.6254 2.48231 8.54449 2.60316 8.4425 2.70488L3.74066 7.40496H30.6344C30.9248 7.40496 31.2034 7.52033 31.4087 7.7257C31.6141 7.93107 31.7295 8.20961 31.7295 8.50004C31.7295 8.79048 31.6141 9.06902 31.4087 9.27438C31.2034 9.47975 30.9248 9.59513 30.6344 9.59513H3.74059L8.4425 14.2953C8.64813 14.5009 8.76365 14.7798 8.76365 15.0706C8.76365 15.3614 8.64813 15.6403 8.4425 15.8459C8.23688 16.0515 7.95799 16.1671 7.66718 16.1671C7.37638 16.1671 7.09749 16.0515 6.89186 15.8459L0.32135 9.2754C0.21937 9.17367 0.138458 9.05283 0.083252 8.91978C0.0280457 8.78674 -0.000371933 8.64412 -0.000371933 8.50008C-0.000371933 8.35603 0.0280457 8.21341 0.083252 8.08036C0.138458 7.94732 0.21937 7.82648 0.32135 7.72475L6.89186 1.15424C6.99359 1.05226 7.11443 0.971349 7.24747 0.916142C7.38052 0.860936 7.52314 0.83252 7.66718 0.83252C7.81123 0.83252 7.95385 0.860936 8.08689 0.916142Z" fill="black"/>
</svg>
