<svg width="52" height="25" viewBox="0 0 52 25" fill="none" xmlns="http://www.w3.org/2000/svg">
<path fill-rule="evenodd" clip-rule="evenodd" d="M38.5445 0.13633C38.3276 0.226334 38.1306 0.358244 37.9648 0.524505C37.7985 0.690347 37.6666 0.887359 37.5766 1.10426C37.4866 1.32116 37.4402 1.55368 37.4402 1.78852C37.4402 2.02335 37.4866 2.25587 37.5766 2.47277C37.6666 2.68967 37.7985 2.88669 37.9648 3.05253L45.6302 10.7151H1.78533C1.31183 10.7151 0.857724 10.9032 0.52291 11.238C0.188097 11.5728 0 12.0269 0 12.5004C0 12.9739 0.188097 13.4281 0.52291 13.7629C0.857724 14.0977 1.31183 14.2858 1.78533 14.2858H45.6303L37.9648 21.9484C37.6295 22.2836 37.4412 22.7383 37.4412 23.2124C37.4412 23.6865 37.6295 24.1412 37.9648 24.4764C38.3 24.8117 38.7547 25 39.2288 25C39.7029 25 40.1575 24.8117 40.4928 24.4764L51.2047 13.7645C51.371 13.5986 51.5029 13.4016 51.5929 13.1847C51.6829 12.9678 51.7292 12.7353 51.7292 12.5005C51.7292 12.2656 51.6829 12.0331 51.5929 11.8162C51.5029 11.5993 51.371 11.4023 51.2047 11.2365L40.4928 0.524505C40.3269 0.358244 40.1299 0.226334 39.913 0.13633C39.6961 0.046327 39.4636 0 39.2288 0C38.9939 0 38.7614 0.046327 38.5445 0.13633Z" fill="black"/>
</svg>
